<svg enable-background="new 0 0 122.88 115.71" version="1.1" viewBox="0 0 122.88 115.71" xml:space="preserve" xmlns="http://www.w3.org/2000/svg"><style type="text/css">.st0{fill-rule:evenodd;clip-rule:evenodd;}</style><path d="m53.263 17.54c-31.615 4.0827-45.619 29.846-41.08 59.855 1.8137 11.993 13.359 38.696 29.174 36.769 4.7021-0.57304 3.2142-6.6037 1.4007-9.206-5.0902-7.3053-17.536-14.74-14.488-25.586 2.9204-10.388 16.823-10.333 24.994-12.771 0 5.1331-1.3503 13.645 4.0559 16.649 4.5948 2.5531 9.247-1.8488 12.625-4.4587 8.7007-6.7225 17.696-13.076 26.493-19.674 4.968-3.7258 15.486-8.9321 15.486-16.07 0-7.3776-9.3816-12.22-14.505-16.062-9.1573-6.8679-18.277-13.789-27.475-20.603-3.3961-2.516-8.1263-6.7801-12.625-4.3519-5.2107 2.8124-4.0559 10.592-4.0559 15.509z" fill="#2189db"/></svg>
